/* XPM */
static const char * const s_CAPGEN_LOGO_xpm[] = {
/* columns rows colors chars-per-pixel */
"48 48 92 1 ",
"  c #0E0014",
". c #130214",
"X c #1C0413",
"o c #230613",
"O c #2A0712",
"+ c #260812",
"@ c #2C0912",
"# c #330B12",
"$ c #3C0C10",
"% c #3D1011",
"& c #490F0F",
"* c #4B110F",
"= c #53130F",
"- c #5A150E",
"; c #5E190F",
": c #440F10",
"> c #451211",
", c #4A1210",
"< c #521610",
"1 c #62160D",
"2 c #62190E",
"3 c #6C1C0E",
"4 c #721C0D",
"5 c #7E1D0B",
"6 c #6D220E",
"7 c #73220E",
"8 c #7B240D",
"9 c #811E0B",
"0 c #891D0A",
"q c #85230B",
"w c #8B240B",
"e c #842A0D",
"r c #8C290C",
"t c #94230A",
"y c #9A270A",
"u c #922A0B",
"i c #9A2D0B",
"p c #95300C",
"a c #9F340C",
"s c #AD2607",
"d c #AD2807",
"f c #A32508",
"g c #A52C09",
"h c #A92C08",
"j c #B32706",
"k c #B42A07",
"l c #BD2D06",
"z c #A5340B",
"x c #AE390B",
"c c #BF3307",
"v c #B23309",
"b c #BD3508",
"n c #B53A0B",
"m c #BC3E0A",
"M c #C32D05",
"N c #CF2D04",
"B c #D32F04",
"V c #C43407",
"C c #CC3205",
"Z c #CF3807",
"A c #C03708",
"S c #C43B08",
"D c #CA3D08",
"F c #DD3504",
"G c #D43A06",
"H c #DC3B05",
"J c #E53403",
"K c #E93502",
"L c #E43B04",
"P c #ED3C03",
"I c #F43701",
"U c #F43A01",
"Y c #F83B01",
"T c #C54209",
"R c #C94009",
"E c #DD4207",
"W c #D34208",
"Q c #DA4608",
"! c #DD4A08",
"~ c #E44506",
"^ c #EB4505",
"/ c #E54907",
"( c #ED4C07",
") c #E34D08",
"_ c #EC4E08",
"` c #F54303",
"' c #F84103",
"] c #F64B05",
"[ c #F84B05",
"{ c #EF5007",
"} c #F55307",
"| c #F85206",
/* pixels */
"                                                ",
"                                                ",
"                                                ",
"                                                ",
"                                                ",
"                                                ",
"                                                ",
"                                                ",
"               .                                ",
"             .O$*:#X          o#>,%@.           ",
"            @3fMCVdq:.      X*rnDRmz6#.         ",
"          .$fHU`Y``Pc2X    X7S([||}})z>         ",
"         .$jIYYY'`''`Z;.  X8Q[[|}}}}}{m%        ",
"         ofIYY`UPU`'``c# .1E[[[]{{{}}}{p.       ",
"        .4JIYUCt34hH`UhO #A[[[~x86em{})6.       ",
"        @lIYUk*. .o4HA>..7^[[Q8o. .#p)p+        ",
"        -KIYC*.    X3-. ov`[^ro     @6#.        ",
"       .0III0X     .X.. >H]]D%      .X.         ",
"       XsIYF=.         .;^]]i.                  ",
"       OMIYM#          .7`]`7                   ",
"       @BYIjo          Xq``^=       XXoX        ",
"       $BIIjX          .u[]^*.     Xemm8.       ",
"      .#BYIko          Xw][^<      Xx}}a.       ",
"       OMYYM@          .8`[(3      ox}}z.       ",
"       XjIIF&.         .2^[`u.     ox}}a.       ",
"       .tIYI5.      .   *E[]S#     Xx}}a.       ",
"        1KYYM$ .   .->. Ob][^8..   ox}}a.       ",
"        @lYYIs$...X1Gc$..8^[]E3o...@m}}a.       ",
"        .4KYYUN8-1yH``gO $S][[~a2;7x{}}a.       ",
"         @jIYYYULP`'``A# .3~[[[]((_|}}}a.       ",
"         .*MUYY''Y''`H3X  +u/[[}|||}}}!6.       ",
"         ..=kP'Y'''`G4o    @rE[[|||}}T6+        ",
"           .$9VFLLCy=X     .+2zW/)Qme>X         ",
"             X#&=*$o.        .+%=<>#X.          ",
"                 .               .              ",
"                                                ",
"                                                ",
"                                                ",
"                                                ",
"                                                ",
"                                                ",
"                                                ",
"                                                ",
"                                                ",
"                                                ",
"                                                ",
"                                                ",
"                                                "
};
