/* XPM */
static const char * const s_CAPGEN_LOGO_xpm[] = {
/* columns rows colors chars-per-pixel */
"32 32 171 2 ",
"   c #000102",
".  c #000203",
"X  c #000304",
"o  c #000405",
"O  c #010506",
"+  c #020607",
"@  c #030708",
"#  c #040809",
"$  c #05090A",
"%  c #060A0B",
"&  c #070B0C",
"*  c #080C0D",
"=  c #090D0E",
"-  c #0A0E0F",
";  c #0B0F10",
":  c #0C1011",
">  c #0D1112",
",  c #0E1213",
"<  c #0F1314",
"1  c #101415",
"2  c #111516",
"3  c #121617",
"4  c #131718",
"5  c #141819",
"6  c #15191A",
"7  c #161A1B",
"8  c #171B1C",
"9  c #181C1D",
"0  c #191D1E",
"q  c #1A1E1F",
"w  c #1B1F20",
"e  c #1C2021",
"r  c #1D2122",
"t  c #1E2223",
"y  c #1F2324",
"u  c #202425",
"i  c #212526",
"p  c #222627",
"a  c #232728",
"s  c #242829",
"d  c #262A2B",
"f  c #272B2C",
"g  c #282C2D",
"h  c #292D2E",
"j  c #2B2F30",
"k  c #2C3031",
"l  c #2E3233",
"z  c #2F3334",
"x  c #323637",
"c  c #333738",
"v  c #343839",
"b  c #35393A",
"n  c #373B3C",
"m  c #383C3D",
"M  c #393D3E",
"N  c #3A3E3F",
"B  c #3C4041",
"V  c #3D4142",
"C  c #3E4243",
"Z  c #3F4344",
"A  c #414546",
"S  c #424647",
"D  c #444849",
"F  c #464A4B",
"G  c #474B4C",
"H  c #494D4E",
"J  c #4D5152",
"K  c #4E5253",
"L  c #4F5354",
"P  c #505455",
"I  c #525657",
"U  c #535758",
"Y  c #545859",
"T  c #55595A",
"R  c #585C5D",
"E  c #5C6061",
"W  c #5D6162",
"Q  c #5F6364",
"!  c #606465",
"~  c #626667",
"^  c #636768",
"/  c #646869",
"(  c #65696A",
")  c #666A6B",
"_  c #696D6E",
"`  c #6A6E6F",
"'  c #6B6F70",
"]  c #6C7071",
"[  c #6E7273",
"{  c #707475",
"}  c #717576",
"|  c #747879",
" . c #75797A",
".. c #767A7B",
"X. c #777B7C",
"o. c #787C7D",
"O. c #797D7E",
"+. c #7A7E7F",
"@. c #7D8182",
"#. c #7E8283",
"$. c #838788",
"%. c #848889",
"&. c #888C8D",
"*. c #8A8E8F",
"=. c #8B8F90",
"-. c #8C9091",
";. c #8E9293",
":. c #939798",
">. c #95999A",
",. c #969A9B",
"<. c #979B9C",
"1. c #999D9E",
"2. c #9A9E9F",
"3. c #9EA2A3",
"4. c #A0A4A5",
"5. c #A3A7A8",
"6. c #A4A8A9",
"7. c #A6AAAB",
"8. c #A9ADAE",
"9. c #AAAEAF",
"0. c #ABAFB0",
"q. c #ACB0B1",
"w. c #ADB1B2",
"e. c #B0B4B5",
"r. c #B2B6B7",
"t. c #B3B7B8",
"y. c #B7BBBC",
"u. c #B8BCBD",
"i. c #BABEBF",
"p. c #BDC1C2",
"a. c #BEC2C3",
"s. c #BFC3C4",
"d. c #C0C4C5",
"f. c #C1C5C6",
"g. c #C4C8C9",
"h. c #C5C9CA",
"j. c #C6CACB",
"k. c #C7CBCC",
"l. c #C8CCCD",
"z. c #C9CDCE",
"x. c #CACECF",
"c. c #CCD0D1",
"v. c #CDD1D2",
"b. c #CED2D3",
"n. c #D0D4D5",
"m. c #D1D5D6",
"M. c #D3D7D8",
"N. c #D5D9DA",
"B. c #D6DADB",
"V. c #D7DBDC",
"C. c #D8DCDD",
"Z. c #D9DDDE",
"A. c #DCE0E1",
"S. c #DEE2E3",
"D. c #E0E4E5",
"F. c #E2E6E7",
"G. c #E3E7E8",
"H. c #E4E8E9",
"J. c #E5E9EA",
"K. c #E7EBEC",
"L. c #E8ECED",
"P. c #E9EDEE",
"I. c #EAEEEF",
"U. c #EBEFF0",
"Y. c #ECF0F1",
"T. c #EDF1F2",
"R. c #F0F4F5",
"E. c #F2F6F7",
"W. c #F3F7F8",
"Q. c #F6FAFB",
"!. c #FCFFFF",
/* pixels */
"0 0 0 0 0 0 e e e e a e e y 7 s u 0 y y 7 0 u 0 9 9 7 9 0 4 : 8 ",
"8 0 8 0 0 0 w e 0 4 0 y u y h 3 s 8 u s w e u 8 u 0 3 7 e e 0 e ",
"7 7 7 8 0 0 w w e 4 h 7 8 e 0 e X 8 4 : u 8 : h ; u s 7 3 0 8 - ",
"7 7 7 7 0 0 w 0 w y f - 8 : e J ] R U M : : u 8 f 3 - 5 w w w e ",
"3 7 7 8 0 0 8 0 0 3 o u | t.L.A.c.z.B.U.Z.&.c @ 7 0 y w : < 3 $ ",
"3 4 7 8 7 8 7 7 s o ] b.x.-.k : o o 3 e J a.A.=.< : 0 8 : 8 a 0 ",
"4 7 7 8 7 7 4 3 @ -.D.@.  $ y Q o.@.^ v :   H c.a.C   7 u - - 0 ",
"3 4 7 7 7 7 3 3 2.T.h   G w.T.k.t.f.j.Z.m.^   X e.I 7 7 4 4 0 3 ",
"w 3 : e - 0 : o.L.y $ | W.:.l 5 :   - u X.M.f.e $ 1 0 7 3 < 3 7 ",
": 3 e - u $ C T.C   1.L.M   u 8 0 8 7 7   y 6.{ $ : 7 7 3 4 3 < ",
"- 8 8 : e o e.9.  _ R.j : 0 $ u 5 8 3 7 u 3 3 o e e 7 : : 3 7 7 ",
"8 : 3 8 $ v L.8 8 !.F   h 4 u - 8 ; y 7 - 7 y e - : 1 3 7 7 3 ; ",
"w - 7 4 o &.e.- o.k.  f * 3 3 7 < e @ 4 4 : e   3 7 7 3 : 3 3 : ",
": 4 : 0 o u.o.- j.X.< $ 0 4 7 0 : f : < u 0 : h 3 3 1 ; : : 3 3 ",
"; 8 - 0 @ x.W   Z.c - e w ; : : 5   4 :   ;     $ & ; 3 5 7 < * ",
"3 @ 0 < : S.v u D.v o 7 < : e 3 7 T / ] / ] ' _ _ P l : $ ; 3 3 ",
": < ; : - m.F 3 B.v 5 : - 0 ; 3 $ 6.f.u.z.a.j.g.y.Q.E o $ 3 $ 4 ",
"- 3 @ e   f.{   B.T   $ e 3 - 3 u   $ $ $ -     ; A.l - 8 7 - - ",
"< - 3 - @ 1.,.  9.4.X w $ : $ 0 @ 3 0 ; o : 7 : C A.3 - $ ; - 4 ",
"3 ; 0   - T c.- M J.- 3 7 3 u $ 7 : : 7 3 0 7   k.&.o 7 o 7 & : ",
"- 3 : ; - 7 J.F $ u.6.: * $ - 7 : - 8 $ 7 -   / B.e - 0 * 7 - $ ",
"- - : < :   | B.  s T.o.- 0 $ 3 3 : 3 7 -   G T.^   7 : $ $ 7 : ",
": o 4 & 3 $ @ V.3.  l J.4.e o   X $     - &.H._   o - - : * 3 & ",
"3 - ; - & 1 @ u R.o.  7 w.L.6.W C A L -.Z.s.J   j c $ < ; 1 $ - ",
"; ; ; ; ; ; ; ; v H.4.    S %.m.A.n.c.e.I   $ P U.R $ : ; - 3 - ",
"; ; ; ; ; ; ; ;   l e.J.W   o o   - -     A 9.W.I 1   : : - : - ",
"; ; ; ; ; ; ; ; - o $ ! B.G.w.o.! E / <.Z.D.$.7 o   & 3 - $ - - ",
"- - - - - - - - : 7 : @ $ C &.0.f.j.a.1.T 8 o $ : 7 3 - - - - - ",
"- - - - - - - - $ ; o : 7 X   $ - $   o @ $ ; 1 - : - $ : : & - ",
"- - - - - - - - : 7 * o o : 7 $ @ o $ ; - - - : $ & $ $ - - $ : ",
"- - - - - - - - X ; : 4 < * : - 7 : ; 3 3 $ $ : : : ; - - $ - ; ",
"* - * - * - - - : : o - - $ : &   - : - $ : : - * * - : - : : @ "
};
