<?xml version="1.0" encoding="UTF-8"?>
<svg xmlns="http://www.w3.org/2000/svg" xmlns:xlink="http://www.w3.org/1999/xlink" width="60px" height="60px" viewBox="0 0 60 60" version="1.1">
<g id="surface1">
<path style=" stroke:none;fill-rule:nonzero;fill:rgb(0%,89.411765%,73.333333%);fill-opacity:1;" d="M 54 18 L 54 52.5 C 54 56.636719 50.636719 60 46.5 60 L 13.5 60 C 9.363281 60 6 56.636719 6 52.5 L 6 7.5 C 6 3.363281 9.363281 0 13.5 0 L 36.011719 0 L 39.925781 3.914062 Z M 54 18 "/>
<path style=" stroke:none;fill-rule:nonzero;fill:rgb(0%,14.901961%,12.54902%);fill-opacity:1;" d="M 54 18 L 43.5 18 C 39.363281 18 36 14.636719 36 10.5 L 36 0 L 36.011719 0 Z M 54 18 "/>
<path style=" stroke:none;fill-rule:nonzero;fill:rgb(9.019608%,16.078431%,17.647059%);fill-opacity:1;" d="M 43.5 18 C 39.363281 18 36 14.636719 36 10.5 L 36 13.5 C 36 17.636719 39.363281 21 43.5 21 L 54 21 L 54 18 Z M 43.5 18 "/>
<path style=" stroke:none;fill-rule:nonzero;fill:rgb(0%,14.901961%,12.54902%);fill-opacity:1;" d="M 37.5 45 C 36.667969 45 36 44.332031 36 43.5 L 36 30 C 36 29.167969 36.667969 28.5 37.5 28.5 C 38.332031 28.5 39 29.167969 39 30 L 39 43.5 C 39 44.332031 38.332031 45 37.5 45 Z M 37.5 45 "/>
<path style=" stroke:none;fill-rule:nonzero;fill:rgb(0%,14.901961%,12.54902%);fill-opacity:1;" d="M 25.5 46.5 C 24.667969 46.5 24 45.832031 24 45 L 24 31.5 C 24 30.667969 24.667969 30 25.5 30 C 26.332031 30 27 30.667969 27 31.5 L 27 45 C 27 45.832031 26.332031 46.5 25.5 46.5 Z M 25.5 46.5 "/>
<path style=" stroke:none;fill-rule:nonzero;fill:rgb(0%,14.901961%,12.54902%);fill-opacity:1;" d="M 25.5 33 C 24.667969 33 24 32.332031 24 31.5 C 24 30.75 24.5625 30.105469 25.3125 30.011719 L 37.3125 28.511719 C 38.132812 28.417969 38.871094 29.015625 38.964844 29.835938 C 39.058594 30.644531 38.484375 31.371094 37.6875 31.488281 L 25.6875 32.988281 C 25.617188 33 25.558594 33 25.5 33 Z M 25.5 33 "/>
<path style=" stroke:none;fill-rule:nonzero;fill:rgb(0%,14.901961%,12.54902%);fill-opacity:1;" d="M 22.5 43.5 C 23.332031 43.5 24 44.167969 24 45 C 24 45.832031 23.332031 46.5 22.5 46.5 C 21.667969 46.5 21 45.832031 21 45 C 21 44.167969 21.667969 43.5 22.5 43.5 M 22.5 40.5 C 20.015625 40.5 18 42.515625 18 45 C 18 47.484375 20.015625 49.5 22.5 49.5 C 24.984375 49.5 27 47.484375 27 45 C 27 42.515625 24.984375 40.5 22.5 40.5 Z M 22.5 40.5 "/>
<path style=" stroke:none;fill-rule:nonzero;fill:rgb(0%,14.901961%,12.54902%);fill-opacity:1;" d="M 34.5 42 C 35.332031 42 36 42.667969 36 43.5 C 36 44.332031 35.332031 45 34.5 45 C 33.667969 45 33 44.332031 33 43.5 C 33 42.667969 33.667969 42 34.5 42 M 34.5 39 C 32.015625 39 30 41.015625 30 43.5 C 30 45.984375 32.015625 48 34.5 48 C 36.984375 48 39 45.984375 39 43.5 C 39 41.015625 36.984375 39 34.5 39 Z M 34.5 39 "/>
<path style=" stroke:none;fill-rule:nonzero;fill:rgb(0%,14.901961%,12.54902%);fill-opacity:1;" d="M 25.5 37.5 C 24.667969 37.5 24 36.832031 24 36 C 24 35.25 24.5625 34.605469 25.3125 34.511719 L 37.3125 33.011719 C 38.132812 32.917969 38.871094 33.515625 38.964844 34.335938 C 39.058594 35.144531 38.484375 35.871094 37.6875 35.988281 L 25.6875 37.488281 C 25.617188 37.5 25.558594 37.5 25.5 37.5 Z M 25.5 37.5 "/>
</g>
</svg>
