<?xml version="1.0" encoding="UTF-8"?>
<svg xmlns="http://www.w3.org/2000/svg" xmlns:xlink="http://www.w3.org/1999/xlink" width="60px" height="60px" viewBox="0 0 60 60" version="1.1">
<g id="surface1">
<path style=" stroke:none;fill-rule:nonzero;fill:rgb(37, 247, 79);fill-opacity:1;" d="M 38.25 31.5 L 21.75 31.5 C 21.339844 31.5 21 31.839844 21 32.25 L 21 45.75 C 21 46.160156 21.339844 46.5 21.75 46.5 L 38.25 46.5 C 38.660156 46.5 39 46.160156 39 45.75 L 39 32.25 C 39 31.839844 38.660156 31.5 38.25 31.5 Z M 32.613281 39.621094 L 28.007812 41.929688 C 27.65625 42.105469 27.234375 41.953125 27.070312 41.601562 C 27.023438 41.507812 27 41.402344 27 41.296875 L 27 36.691406 C 27 36.304688 27.316406 35.988281 27.714844 36 C 27.820312 36 27.925781 36.023438 28.019531 36.070312 L 32.625 38.367188 C 32.964844 38.542969 33.105469 38.964844 32.929688 39.316406 C 32.847656 39.457031 32.742188 39.5625 32.613281 39.621094 Z M 36.011719 0 L 13.5 0 C 9.363281 0 6 3.363281 6 7.5 L 6 52.5 C 6 56.636719 9.363281 60 13.5 60 L 46.5 60 C 50.636719 60 54 56.636719 54 52.5 L 54 18 Z M 42 45.75 C 42 47.824219 40.324219 49.5 38.25 49.5 L 21.75 49.5 C 19.675781 49.5 18 47.824219 18 45.75 L 18 32.25 C 18 30.175781 19.675781 28.5 21.75 28.5 L 38.25 28.5 C 40.324219 28.5 42 30.175781 42 32.25 Z M 42 19.5 C 37.863281 19.5 34.5 16.136719 34.5 12 L 34.5 3 L 51 19.5 Z M 42 19.5 "/>
</g>
</svg>
